<?xml version="1.0" standalone="no"?>
<svg xmlns:xlink="http://www.w3.org/1999/xlink" id="wave" style="transform:rotate(180deg); transition: 0.3s" viewBox="0 0 1440 100" version="1.1" xmlns="http://www.w3.org/2000/svg"><defs><linearGradient id="sw-gradient-0" x1="0" x2="0" y1="1" y2="0"><stop stop-color="rgba(248, 244, 237, 1)" offset="0%"/><stop stop-color="rgba(248, 244, 237, 1)" offset="100%"/></linearGradient></defs><path style="transform:translate(0, 0px); opacity:1" fill="url(#sw-gradient-0)" d="M0,10L60,11.7C120,13,240,17,360,30C480,43,600,67,720,75C840,83,960,77,1080,70C1200,63,1320,57,1440,51.7C1560,47,1680,43,1800,45C1920,47,2040,53,2160,56.7C2280,60,2400,60,2520,65C2640,70,2760,80,2880,81.7C3000,83,3120,77,3240,63.3C3360,50,3480,30,3600,18.3C3720,7,3840,3,3960,15C4080,27,4200,53,4320,68.3C4440,83,4560,87,4680,86.7C4800,87,4920,83,5040,71.7C5160,60,5280,40,5400,35C5520,30,5640,40,5760,38.3C5880,37,6000,23,6120,26.7C6240,30,6360,50,6480,60C6600,70,6720,70,6840,60C6960,50,7080,30,7200,28.3C7320,27,7440,43,7560,45C7680,47,7800,33,7920,33.3C8040,33,8160,47,8280,48.3C8400,50,8520,40,8580,35L8640,30L8640,100L8580,100C8520,100,8400,100,8280,100C8160,100,8040,100,7920,100C7800,100,7680,100,7560,100C7440,100,7320,100,7200,100C7080,100,6960,100,6840,100C6720,100,6600,100,6480,100C6360,100,6240,100,6120,100C6000,100,5880,100,5760,100C5640,100,5520,100,5400,100C5280,100,5160,100,5040,100C4920,100,4800,100,4680,100C4560,100,4440,100,4320,100C4200,100,4080,100,3960,100C3840,100,3720,100,3600,100C3480,100,3360,100,3240,100C3120,100,3000,100,2880,100C2760,100,2640,100,2520,100C2400,100,2280,100,2160,100C2040,100,1920,100,1800,100C1680,100,1560,100,1440,100C1320,100,1200,100,1080,100C960,100,840,100,720,100C600,100,480,100,360,100C240,100,120,100,60,100L0,100Z"/></svg>